<svg xmlns="http://www.w3.org/2000/svg" width="342" height="513" viewBox="0 0 342 513" fill="none">
  <rect width="342" height="513" fill="#27272a"/>
  <path d="M171 180c-25.4 0-46 20.6-46 46s20.6 46 46 46 46-20.6 46-46-20.6-46-46-46zm0 72c-14.4 0-26-11.6-26-26s11.6-26 26-26 26 11.6 26 26-11.6 26-26 26z" fill="#52525b"/>
  <path d="M241 280H101c-16.6 0-30 13.4-30 30v123c0 16.6 13.4 30 30 30h140c16.6 0 30-13.4 30-30V310c0-16.6-13.4-30-30-30zm-140 8h140c12.2 0 22 9.8 22 22v123c0 12.2-9.8 22-22 22H101c-12.2 0-22-9.8-22-22V310c0-12.2 9.8-22 22-22z" fill="#52525b"/>
</svg>
